# xmcd
#
# Track frame offsets:
# 150
# 11823
# 24615
# 37780
# 50535
# 62195
# 72910
# 88270
# 99903
# 111845
# 123228
# 133758
# 146160
# 159600
# 168433
# 182265
# 194650
# 204655
# 220448
# 234765
# 246615
# 262248
#
# Disc length: 3665 seconds
#
# Revision: 2
# Processed by: cddbd v1.4PL0 Copyright (c) Steve Scherf et al.
# Submitted via: plextools 1.18
#
DISCID=4c0e4f16
DTITLE=Sonny Boy Williamson - The Best ...Blues Sonny Boy Williamson
DYEAR=1991
DGENRE=Blues
TTITLE0=Sonny Boy Williamson - Don't Start Me To Talkin'
TTITLE1=Sonny Boy Williamson - All My Love In Vain
TTITLE2=Sonny Boy Williamson - Let Me Explain
TTITLE3=Sonny Boy Williamson - Keep It To Yourself
TTITLE4=Sonny Boy Williamson - The Key (To Your Door)
TTITLE5=Sonny Boy Williamson - Fattening Frogs For Snakes
TTITLE6=Sonny Boy Williamson - Cross My Heart
TTITLE7=Sonny Boy Williamson - Born Blind
TTITLE8=Sonny Boy Williamson - Ninety Nine
TTITLE9=Sonny Boy Williamson - Your Funeral And My Trial
TTITLE10=Sonny Boy Williamson - Let Your Conscience Be Your Guide
TTITLE11=Sonny Boy Williamson - The Goat
TTITLE12=Sonny Boy Williamson - It's Sad To Be Alone
TTITLE13=Sonny Boy Williamson - Checkin' Up On My Baby
TTITLE14=Sonny Boy Williamson - Lonesome Cabin
TTITLE15=Sonny Boy Williamson - Trust My Baby
TTITLE16=Sonny Boy Williamson - Too Close Together
TTITLE17=Sonny Boy Williamson - Nine Below Zero
TTITLE18=Sonny Boy Williamson - Help Me
TTITLE19=Sonny Boy Williamson - Bring It On Home
TTITLE20=Sonny Boy Williamson - Decoration Day
TTITLE21=Sonny Boy Williamson - One Way Out
EXTD=Sound Products Holland CD931 [Original Checker Recordings Digital Mastering]
EXTT0=
EXTT1=
EXTT2=
EXTT3=
EXTT4=
EXTT5=
EXTT6=
EXTT7=
EXTT8=
EXTT9=
EXTT10=
EXTT11=
EXTT12=
EXTT13=
EXTT14=
EXTT15=
EXTT16=
EXTT17=
EXTT18=
EXTT19=
EXTT20=
EXTT21=
PLAYORDER=
